<svg width="135" height="126" viewBox="0 0 135 126" fill="none" xmlns="http://www.w3.org/2000/svg">
<mask id="mask0_1_614" style="mask-type:luminance" maskUnits="userSpaceOnUse" x="0" y="0" width="135" height="125">
<path d="M135 0H0V124.772H135V0Z" fill="white"/>
</mask>
<g mask="url(#mask0_1_614)">
<path d="M77.4385 124.772C106.788 124.772 130.58 120.944 130.58 116.221C130.58 111.499 106.788 107.671 77.4385 107.671C48.089 107.671 24.2968 111.499 24.2968 116.221C24.2968 120.944 48.089 124.772 77.4385 124.772Z" fill="black" fill-opacity="0.1"/>
<path d="M77.4379 115.124C109.229 115.124 135 89.3528 135 57.562C135 25.7714 109.229 -3.05176e-05 77.4379 -3.05176e-05C45.6474 -3.05176e-05 19.8759 25.7714 19.8759 57.562C19.8759 89.3528 45.6474 115.124 77.4379 115.124Z" fill="url(#paint0_linear_1_614)"/>
<path d="M59.4646 45.9789C61.594 44.3657 63.659 44.3012 65.6917 45.9789" stroke="#41265B" stroke-width="1.61329" stroke-miterlimit="10" stroke-linecap="round"/>
<path d="M39.6859 45.9789C41.8154 44.3657 43.8806 44.3012 45.9134 45.9789" stroke="#41265B" stroke-width="1.61329" stroke-miterlimit="10" stroke-linecap="round"/>
<path fill-rule="evenodd" clip-rule="evenodd" d="M3.45245 49.1406C1.09704 51.0119 0 53.9806 0 57.9168C0.0322656 62.176 1.87141 65.0799 4.32362 66.7901C6.64674 68.4356 9.35706 68.9519 11.1962 68.9195L37.8156 68.7259C39.1385 68.7259 40.2032 67.629 40.2032 66.3059C40.2032 64.983 39.106 63.9183 37.7832 63.9183L11.164 64.1119C10.0992 64.1119 8.45362 63.7892 7.13074 62.8535C5.93691 62.0145 4.83986 60.5626 4.83986 57.8523C4.83986 54.8193 5.64652 53.5289 6.45316 52.8835C7.3566 52.1736 8.84082 51.7863 10.9704 51.8833C12.9708 51.9478 13.842 52.4641 14.2615 52.8835C14.6809 53.3674 15.0681 54.2385 15.1004 56.0131C15.1004 56.6264 14.9713 57.0136 14.81 57.2393C14.6809 57.4651 14.4551 57.6587 14.1647 57.8202C13.5194 58.1429 12.6159 58.1429 11.8738 57.8202C11.8738 57.8202 11.777 57.7556 11.6802 57.6587C11.5834 57.562 11.5189 57.4651 11.5189 57.433C11.5189 57.433 11.5189 57.3684 11.5834 57.336C11.6157 57.2715 11.7125 57.1424 11.8738 56.9812C12.8095 56.0455 12.8095 54.5291 11.8738 53.561C10.9381 52.6253 9.4216 52.6253 8.45362 53.561C7.64699 54.3676 7.06621 55.3035 6.80808 56.3358C6.54996 57.3684 6.67901 58.3686 7.00167 59.1752C7.61472 60.7241 8.90535 61.7888 9.97011 62.2406C11.9061 63.0796 14.2937 63.1117 16.2942 62.1436C18.456 61.0789 19.9402 58.9494 19.9402 55.981C19.9402 53.6901 19.4563 51.367 17.843 49.6245C16.2297 47.8501 13.8743 47.1402 11.164 47.0433C8.61496 46.9466 5.7433 47.3338 3.48471 49.1085L3.45245 49.1406Z" fill="url(#paint1_linear_1_614)"/>
<path fill-rule="evenodd" clip-rule="evenodd" d="M50.1729 68.8229C50.947 67.3064 49.366 66.9191 51.8505 66.1771C51.9475 66.1771 51.9475 66.048 51.8505 65.9835C50.8182 65.3381 51.0761 64.6285 49.9147 63.4347C49.9147 63.4347 50.6246 62.9829 50.5922 62.9829L36.2018 63.2087C35.2016 63.2087 34.4271 64.0152 34.4271 65.0157V67.3388C34.4271 68.339 35.2661 69.1134 36.2663 69.1134L50.205 68.7907L50.1729 68.8229Z" fill="url(#paint2_linear_1_614)"/>
<path d="M38.2038 63.725C38.2038 62.7245 37.3972 61.9503 36.397 61.9503H34.9451C33.9446 61.9503 33.1704 62.789 33.1704 63.7571V68.3711C33.2025 69.3713 34.0091 70.1457 35.0096 70.1457H36.4615C37.4617 70.1457 38.2359 69.3067 38.2359 68.339V63.725H38.2038Z" fill="url(#paint3_linear_1_614)"/>
<path d="M51.6576 61.4661C49.5282 63.015 49.4957 64.4349 51.8512 65.6932" stroke="#41265B" stroke-width="1.06477" stroke-miterlimit="10" stroke-linecap="round"/>
<path d="M51.85 65.7253C49.7206 67.2739 49.6884 68.6938 52.0436 69.9521" stroke="#41265B" stroke-width="1.06477" stroke-miterlimit="10" stroke-linecap="round"/>
</g>
<defs>
<linearGradient id="paint0_linear_1_614" x1="121.997" y1="102.121" x2="30.7494" y2="10.9058" gradientUnits="userSpaceOnUse">
<stop stop-color="#1B093C"/>
<stop offset="0.09" stop-color="#301C50"/>
<stop offset="0.26" stop-color="#563E75"/>
<stop offset="0.44" stop-color="#735992"/>
<stop offset="0.61" stop-color="#896CA7"/>
<stop offset="0.77" stop-color="#9578B3"/>
<stop offset="0.93" stop-color="#9A7CB8"/>
</linearGradient>
<linearGradient id="paint1_linear_1_614" x1="25.8368" y1="50.8847" x2="12.892" y2="70.5557" gradientUnits="userSpaceOnUse">
<stop stop-color="#00B7C5"/>
<stop offset="1" stop-color="#127E8F"/>
</linearGradient>
<linearGradient id="paint2_linear_1_614" x1="38.9604" y1="69.4127" x2="48.6433" y2="59.2525" gradientUnits="userSpaceOnUse">
<stop stop-color="#F79636"/>
<stop offset="1" stop-color="#F6B97B"/>
</linearGradient>
<linearGradient id="paint3_linear_1_614" x1="38.1894" y1="59.3105" x2="33.8732" y2="69.365" gradientUnits="userSpaceOnUse">
<stop stop-color="#F6B97B"/>
<stop offset="1" stop-color="#F79636"/>
</linearGradient>
</defs>
</svg>
