<svg width="45" height="47" viewBox="0 0 45 47" fill="none" xmlns="http://www.w3.org/2000/svg">
<path d="M36.9514 35.8152C36.6538 35.8152 36.2907 36.09 34.7061 36.09C24.4433 36.09 26.809 24.1237 18.8774 21.9467C26.212 20.2229 32.8996 12.532 32.8996 10.3782C32.8996 8.56346 31.58 7.22871 30.3188 7.22871C29.8749 7.22871 23.6983 19.6251 15.5672 20.5869C17.1552 16.3453 18.7002 12.8122 18.7002 11.1652C18.7002 8.48851 16.4876 7.09131 15.168 7.09131C15.0355 7.09131 14.9701 7.12521 14.9701 7.22871C14.9701 15.0677 8.60425 26.1276 8.60425 30.6457C8.60425 33.7274 10.6499 35.3031 11.9042 35.3031C12.1021 35.3031 12.1692 35.2335 12.1692 35.0283C12.1692 31.0419 13.4217 26.6219 14.8308 22.6265C22.7985 24.1415 20.2676 38.722 31.4716 38.722C35.3014 38.722 37.182 36.5665 37.182 36.0186C37.182 35.8848 37.0839 35.8152 36.9514 35.8152Z" fill="#EE3A64"/>
</svg>
